<svg id="eTacw8ROWNo1" xmlns="http://www.w3.org/2000/svg" xmlns:xlink="http://www.w3.org/1999/xlink" viewBox="0 0 790 790" shape-rendering="geometricPrecision" text-rendering="geometricPrecision"><path d="M1.000002,436C1,409.645782,1,383.291534,1.372911,356.771423c.790337-1.341491,1.433336-2.488067,1.588894-3.697387c1.079559-8.392365,1.493327-16.912659,3.175185-25.177307c4.902265-24.089692,10.900564-47.863099,19.710844-70.935425c9.03092-23.650193,20.094083-46.203965,33.137384-67.843918c15.096912-25.047119,32.895405-48.10405,53.483288-68.763703c13.528549-13.575714,28.220199-26.084465,43.10791-38.1893c16.90567-13.745606,35.248062-25.579186,54.881577-35.11285c16.313995-7.921784,32.72615-15.793034,49.624954-22.312655c14.474518-5.584337,29.507812-10.076592,44.646515-13.486778c16.395721-3.693349,33.202667-5.556928,49.813629-8.31846.576843-.095897.975281-1.26484,1.456909-1.933643C361.022095,1,366.044189,1,371.548584,1.41592c2.044739,1.138772,3.589935,2.447415,5.172333,2.494085c16.270202.479858,32.575989.265958,48.81131,1.24731c12.332733.745458,24.619201,2.673211,36.848754,4.573813c9.456269,1.469612,18.817627,3.599423,28.164521,5.689264c2.381836.532543,3.549896.44145,3.804779-2.322516c1.127014.210723,1.91156.498591,2.687866,1.183241c1.288483,1.552173,2.40506,3.340467,3.908752,3.768306c23.746399,6.756369,46.927735,15.063641,68.832215,26.467129c15.404114,8.019394,30.282715,17.046043,45.452636,25.521618c1.033265.577263,2.733765,3.896278,4.159363-.090447c16.937256,13.394684,33.93982,26.249009,49.93219,40.25663c9.620545,8.426552,18.001343,18.36541,26.32843,28.144738c8.509949,9.993988,16.599976,20.387283,24.296387,31.023605c16.660339,23.024246,30.369385,47.830154,40.758728,74.225174c7.380188,18.750122,13.953186,37.957428,18.982422,57.451935c4.466614,17.31372,6.291748,35.307281,9.381958,52.983398.13031.745209,1.263062,1.315155,1.928772,1.966797c0,26.354218,0,52.708466-.372681,79.228333-.784912.84143-1.468017,1.479736-1.567627,2.198852-1.071716,7.737793-1.54187,15.596619-3.160461,23.213287-3.612488,16.999695-7.155762,34.057862-11.868347,50.770447-8.414734,29.841339-21.494202,57.724945-36.958618,84.592133-15.15802,26.3349-33.379456,50.377014-54.240174,72.263489-12.448181,13.060302-26.489441,24.645446-40.191772,36.456176-17.432129,15.025391-36.824951,27.266846-56.993958,38.261292-20.357116,11.097107-41.479431,20.53833-63.473571,27.883911-9.243042,3.086975-18.767914,5.330078-28.174866,7.600464-1.56897-.696411-3.276062-1.633911-4.664673-1.289063-33.374695,8.287659-67.307434,11.692688-101.620026,11.769593-4.11145.009216-8.227173-.845032-12.334655-.793946C374.240784,788.169067,373.12558,790.001709,372,791c-5.022095,0-10.044189,0-15.229431-.373047-1.334931-.798279-2.476837-1.45636-3.683319-1.611145-8.394745-1.077087-16.920685-1.473999-25.18454-3.16449-24.093994-4.929016-47.884308-10.912475-70.968567-19.719604-23.67392-9.032166-46.301468-20.032227-67.908981-33.160584-29.019898-17.632019-55.090073-39.000305-78.766464-63.290405-4.912735-5.0401-9.501931-10.426697-13.918396-15.91272-8.24643-10.243652-16.603936-20.426818-24.29406-31.083374-16.632473-23.048278-30.253464-47.890381-40.783739-74.2453-6.884446-17.230225-13.392798-34.783386-17.92553-52.733398-4.775897-18.912964-6.983317-38.473175-10.408969-57.733521-.133058-.748077-1.262722-1.31897-1.928002-1.972412m45.289102-94.108154c-.76329.041321-1.526577.082611-2.766365-.278382-1.689075.432007-3.355678,1.080475-5.071117,1.258576-7.476147.776092-14.966494,1.415466-22.971719,1.711456-3.124736.587494-6.24947,1.174957-9.374207,1.762451.059382.474884.118763.949768.178144,1.424652c3.293091-.409912,6.586182-.819854,10.676325-1.126403c2.47567-.177369,4.956497-.301758,7.426029-.542176c6.875038-.669403,13.745386-1.386993,21.272471-1.828796.449379-.096771.898758-.193573,2.194763-.182709c2.706921-.316192,5.413837-.632355,8.542629-.611694.870808-.136688,1.741612-.273407,3.520424-.283295c3.339489-.186035,6.678978-.37207,10.890968-.669739c2.703232-.306945,5.406472-.613891,8.861641-.824646c1.768357-.18283,3.536705-.365631,6.018868-.1958c3.736557-.324921,7.473114-.649842,11.965675-.863739c1.773773-.164704,3.547554-.329407,6.036774-.145935c3.735702-.321961,7.471397-.643921,11.962333-.852265c1.773194-.159851,3.54638-.319672,6.039498-.127411c4.071342-.317901,8.142692-.635834,13.018532-.825958c2.755508-.185669,5.511016-.371338,8.989975-.197907c4.733291-.317016,9.466568-.634033,14.994537-.832366c2.425842-.166535,4.8517-.3331,7.998734-.128296c5.070419-.324585,10.140853-.64917,16.026733-.853119c2.751938-.180268,5.503891-.360535,8.986481-.188965c5.730438-.31839,11.460861-.63678,18.026611-.814514c3.748108-.182282,7.496216-.364563,11.970398-.181183c6.732376-.316406,13.464737-.632782,21.062668-.812378c4.402679-.17804,8.805374-.35611,13.929382-.154419c10.736206-.323181,21.472443-.646362,33.090942-.827454c20.078644-.279205,40.157258-.558441,60.948212-.461822c23.948761.014618,47.897553.039825,71.846314.025696c2.130493-.001282,4.260833-.258637,7.321777-.249634c20.395081.174286,40.790161.348572,61.831451.984192c5.413025-.042023,10.82605-.084015,17.168396.029083c10.393128.177429,20.786255.354828,31.79242.985138c3.092163-.049652,6.184387-.099304,10.204468.014343c7.72882.172241,15.457641.344452,23.797607.970581c3.090881-.047699,6.181824-.095398,10.199707.022766c7.728394.17984,15.456848.359681,23.729736.990662c2.115113-.048859,4.230286-.097717,7.266724.023743c5.397827.16864,10.795654.33728,16.69635.961303c1.79419-.043365,3.588379-.086731,6.283997.047364c4.401062.178558,8.802124.357116,13.674011.974212c1.473816-.055633,2.947632-.111267,5.322754.013275c4.40155.185334,8.8031.370697,13.672485.998475c1.475891-.057312,2.951782-.114624,5.326111.005493c4.07196.170593,8.143982.341186,12.722534.964386c1.794983-.037323,3.589905-.074646,6.265015.063751c3.738769.177429,7.477478.354858,11.625732.97052c1.163635-.054535,2.327271-.109039,4.347168.020264c3.087342.155883,6.174683.311798,9.712891.92575c1.477417-.033661,2.954895-.067321,5.279785.086792c4.72522.316712,9.450378.633454,14.928284,1.244721c3.090576.161041,6.181091.322082,9.872619,1.014679c8.070923.735565,16.141846,1.4711,24.21283,2.206665.073303-.530304.146606-1.060639.21991-1.590973-3.12616-.675354-6.222962-1.632599-9.385132-1.960938-4.899475-.508758-9.843384-.58847-15.500244-1.076171-3.391724-.297242-6.783387-.594452-10.657166-.99997c0,0-.487427.080414-1.064209-.233795-1.200195-.293976-2.40033-.587952-4.33783-1.183746-1.054321-.073121-2.108703-.14621-3.687316-.607605-1.488953-.022065-2.977845-.044129-5.143189-.328949-1.442261-.103547-2.884582-.207123-4.957214-.714356-1.490479-.030426-2.980896-.060852-5.213318-.380707-1.055237-.056091-2.110535-.112152-3.688538-.55661-1.486755-.021301-2.973449-.042602-5.13977-.320862-1.444092-.105651-2.888123-.211303-4.960694-.720703-1.491027-.016967-2.981994-.033905-5.249878-.335907-1.373168-.090362-2.746337-.180725-4.645263-.658233-1.48761-.006562-2.975159-.013123-5.183106-.264862-1.765564-.106903-3.531128-.213837-5.950866-.714997-1.8349-.110321-3.669739-.220672-5.56366-.615661c0,0-.284241-.061066-.238464-1.022858.06134-8.780426.122619-17.560852,1.151977-26.494354c7.411072-.090882,14.822083-.181763,22.711121.080749.54779-.379089,1.095581-.758178,1.643371-1.137237-.641113-.606751-1.282226-1.213471-2.236633-2.402375-17.094116-17.054748-34.188232-34.109497-51.300476-52.116897-.046448-3.160065.028259-6.327789-.170898-9.478195-.233094-3.687775-.704651-7.360443-1.355408-11.633026-5.1875-5.105362-10.375061-10.210724-15.680908-15.86847-.54834-.078109-1.09668-.156234-1.64502-.234344.036438.401184.072876.802368-.157715,2.037659.062805,4.507415.125672,9.014846-.392639,14.122924-.73999.170914-1.47998.341828-2.589294-.089981-16.431885-16.377533-32.863709-32.755066-49.396607-49.73056-1.04425.22197-2.08844.443924-3.712707.986435-21.825501,21.773697-43.651062,43.547394-65.960816,65.804184-7.4057-7.585694-14.464874-14.816422-21.643371-22.697983-2.567658-2.49382-5.135315-4.987656-7.808991-8.402954-.161285-7.288864-.322571-14.577728-.306-22.438324-.555786-.499191-1.111572-.998383-1.884033-1.951584-.270019-.190567-.540008-.381134-.939514-1.227127-3.619598-3.416916-7.239227-6.833832-11.184662-10.802292-1.386169-1.298553-2.772369-2.597107-4.279663-4.495483-.775513-.469773-1.551056-.93956-2.326538-1.409333-.107178.790818-.214325,1.581635-.511627,3.285157.059357,5.206085.118713,10.41217-.441132,16.125854-.728821.104126-1.457672.208252-2.556762-.26947-19.065705-19.010773-38.131379-38.02153-57.285401-57.567154-.802826.214615-1.605652.429245-2.984924.965973-36.921356,36.672455-73.842682,73.34491-111.575562,110.823425-1.324188-1.716354-2.38974-3.456085-3.791382-4.860397-20.471466-20.5103-40.987777-40.975815-61.65155-62.0737-1.0074.079361-2.421234-.24472-2.960907.298935-7.433838,7.488876-14.747375,15.097198-22.650924,23.051132-8.845322,8.921311-17.690659,17.842621-27.536225,26.911438-.567718-1.274917-1.541824-2.52388-1.625213-3.829727-.228928-3.584686.007049-7.196503-.12114-10.791153-.075577-2.119766-.22963-2.114273-3.011719-.482605-4.797882,4.876892-9.595764,9.753799-14.917709,14.660355-.219132.711212-.438278,1.422409-.866699,3.044006.038299,5.870529.076584,11.741058-.386154,17.946426-.313431.725296-.626862,1.450592-1.500611,2.554779-16.97541,17.05864-33.950828,34.117264-51.500702,51.311722-.16526.524079-.33052,1.048126-.495773,1.572205.500557.046631,1.001114.093292,2.397659.33902c7.339379-.01651,14.678765-.03302,22.301056.517089.339539.241272.679077.482514.952362,1.667878.043144,8.070984.086296,16.141998-.525749,24.723205-2.230568.607971-4.461128,1.215943-7.433403,1.750183-.72702.141724-1.454041.283478-2.963371.108826-2.098999.31897-4.197998.637909-7.038925.885406-.726067.146973-1.452134.293946-2.922059.121521-1.785354.287964-3.570709.575928-6.033783.787171-1.11782.184509-2.235633.369018-3.95185.204193-1.789124.295685-3.578255.59137-6.158692.827423-1.036835.180847-2.073677.361694-3.845993.233337-1.998802.314118-3.997604.628266-6.605835.875397-.595405.125336-1.190811.250702-2.384525.022522-2.486298.54718-4.972595,1.09433-8.205307,1.576477-.748608.028992-1.497215.057984-2.664971-.300567-1.170475.45166-2.34095.90332-4.185756,1.287353-.448441.045502-.896881.091004-2.094876-.077148m471.971577,29.310791c-25.960998-1.924195-48.055481,7.039032-65.783172,25.475036-31.230195,32.477845-32.10376,84.890107-2.778443,119.037842c26.777588,31.18103,73.34848,38.845947,106.253876,16.538147c29.566406-20.04425,42.164062-48.648743,39.301514-84.213714-3.227234-40.095704-36.062806-73.34137-76.993775-76.837311M158.511337,541.202454c5.451737.018249,11.005173.708374,16.332108-.097901c8.632156-1.306701,11.988083-5.611938,12.103073-14.387329.185486-14.156067.107117-28.315491.165588-42.473358.007157-1.733734.170288-3.466827.261124-5.200195.626389-.413575,1.252777-.827149,1.87915-1.240723.821656,1.403717,1.443634,2.981964,2.495041,4.184845c15.119644,17.29892,30.151245,34.678345,45.506974,51.766113c12.171752,13.544678,17.436996,13.62732,31.043243,1.558472c9.978027-8.850586,10.845245-15.697327,1.727203-25.512451-14.607223-15.72403-29.837372-30.868592-44.76091-46.299958-6.787735-7.018737-7.68486-4.750549.115174-12.663452c14.956146-15.172393,30.171753-30.112884,44.584182-45.789062c9.548096-10.385254,8.35727-17.517029-2.493744-26.633698-.382202-.321167-.789367-.612457-1.176574-.927856-12.442826-10.137329-17.902359-9.748566-28.540055,2.345428-13.193618,14.999848-26.25505,30.115876-39.4234,45.138062-3.182969,3.631073-6.56157,7.090637-10.876023,11.732788-.176391-3.496552-.338913-5.260407-.342544-7.024567-.026093-12.659424.085189-25.320038-.052018-37.978088-.152267-14.0466-4.89743-18.617737-19.107833-18.780518-1.830567-.020965-3.672669-.050933-5.491852.115387-11.544556,1.055481-15.898056,5.670472-16.334625,17.243439-.043946,1.164429-.011277,2.331787-.011277,3.497803-.000305,41.809631-.015686,83.619293.030838,125.428833.003495,3.145569.487641,6.288269.681229,9.436401.427521,6.951721,4.121063,10.999329,11.685928,12.561585m153.110855-13.308167c20.251801,16.775757,42.918793,21.261963,67.128449,10.853088c24.128113-10.373779,37.177368-29.458801,38.230682-55.997619c1.169556-29.46756-18.510101-55.740845-46.85376-63.044159-28.625549-7.376007-60.126983,6.631653-73.202941,32.550903-12.994172,25.757202-7.72873,53.687287,14.69757,75.637787m300.232666-16.337616c.661744,3.087677,1.297974,6.181122,1.989808,9.261994c2.431884,10.830749,9.4458,17.310302,20.085754,18.961669c9.149902,1.420166,18.511841,1.883851,27.786133,1.954285c6.531555.049561,9.7229-3.006775,10.776001-9.013306.771057-4.397583,1.293701-8.941589,1.104065-13.385131-.536316-12.565705-3.212769-15.181305-15.685181-16.114685-3.97644-.297547-6.165466-2.176972-6.428833-6.164307-.175415-2.656799-.368958-5.319214-.373413-7.979431-.031738-19.155121-.016358-38.310364-.017517-57.465546-.001038-17.489502.05072-34.979278-.030518-52.468414-.037597-8.098175-3.475891-13.266083-10.141784-14.680908-4.190735-.889466-8.608277-1.426545-12.864136-1.161103-13.421692.837006-17.238709,5.126801-17.311951,18.499115-.002746.499695-.001404.99942-.001404,1.499115c0,36.977845-.041259,73.95578.045227,110.933441.012818,5.481415.628785,10.961487,1.067749,17.323212m-22.328186,65.430023c-.742248,4.91687-2.21582,9.851136-2.098816,14.747498.479615,20.067444,14.978699,31.586182,35.865296,28.91803c9.446655-1.206726,18.158813-4.26062,22.944885-13.1167c7.898804-14.615905,7.914978-29.820617.664307-44.619506-4.641724-9.473816-15.801026-13.981751-27.923401-12.189331-9.455322,1.397888-15.561585,6.497924-16.182434,17.234985-7.36853-1.615601-11.521668,1.461304-13.269837,9.025024m-115.334625,32.44043c.183319,11.175537.458008,11.473328,8.287872,10.411865c3.875824-.52539,5.728547-1.854858,5.225037-6.443298-.742126-6.763367-.636536-13.642273-.47998-20.462524.030883-1.345215,1.864074-3.725892,2.974121-3.791138c6.278808-.369141,12.590545-.178528,19.561737-.178528c0,2.090332-.078583,3.706055.013458,5.31189.428497,7.475708.64447,14.980163,1.542816,22.400879.229065,1.892272,2.682221,4.988342,4.100861,4.981201c3.908203-.019471,7.809692-1.389893,11.295471-2.136353-8.26471-23.349548-3.71759-46.25-4.220703-68.748108-8.969971-1.113525-12.139832,1.253968-12.413056,9.423462-.203125,6.073609-.039947,12.159485-.039947,18.512879-7.204834,0-13.030914-.130249-18.847168.052917-3.078766.096863-4.133118-1.014831-3.966065-4.053039.329163-5.985535.518952-11.985596.497651-17.978638-.004914-1.381043-.832642-3.732849-1.728058-3.97284-4.484345-1.202087-9.117066-1.850647-13.652649-2.685546.815521,8.124755,1.636749,14.962707,2.136658,21.824096.27069,3.714722.54309,7.802246-5.297059,7.803101.480286,1.585815.506653,2.947815,1.192872,3.73352c4.791656,5.486756,3.807159,12.091126,3.814849,18.516663.002594,2.166443.00058,4.332886.001282,7.477539m-99.156921-13.794678c-1.284607,1.519898-3.541504,2.958496-3.676636,4.574524-.456329,5.457642-.387085,10.994446.002472,16.463867.1026,1.440491,2.002716,3.853577,3.217529,3.944458c12.413239.927857,24.734986.819886,35.535401-6.809875c6.534637-4.616211,10.786285-10.558594,9.755188-18.954346-.968567-7.88623-6.47583-12.020447-13.293122-14.840149-4.615448-1.908813-9.389312-3.535217-13.747009-5.919067-1.855774-1.015198-4.01004-3.726563-3.882172-5.513489.13562-1.895264,2.495728-4.505615,4.457733-5.212646c4.002961-1.442505,8.360444-2.223572,12.626709-2.541138c7.316041-.544739,9.066956-2.572083,7.810059-10.822205-9.143738-.607727-18.243103-.056762-26.778656,3.704468-6.860718,3.023255-13.474487,7.125-13.523071,15.705444-.048462,8.556458,6.697845,11.961243,13.467651,14.936097c4.719513,2.073852,9.589905,3.929809,14.005341,6.539001c5.792053,3.422608,6.454529,9.59906,1.020935,13.500183-3.703491,2.658936-8.615418,3.885865-13.168884,5.027588-3.431702.860413-5.694459-1.358398-6.259369-4.862121-.523865-3.249207-.863373-6.528077-1.353699-10.334778-2.012848.412842-3.757507.770691-6.2164,1.414184m194.648285-16.139038c-.312806-5.492492-3.736573-6.475952-8.345337-5.781921-.654419.098633-1.332703.026062-1.995911.081116-14.70697,1.22052-25.208435,13.788024-23.479126,28.090332c1.590515,13.154968,12.707459,20.547119,27.170593,18.067199c8.867676-1.52063,15.710572-8.715271,17.441895-18.338684c1.765503-9.813476-1.467896-16.784118-10.792114-22.118042m-127.022461,40.4469c3.968811.215454,7.979736.899475,11.897583.547546c7.828094-.703125,9.628265-4.31073,6.578064-11.5979-3.87146.292419-7.65683.899108-11.421662.79071-6.342498-.182556-9.990844-4.354248-9.915222-10.728393.086762-7.31189,3.741821-12.266663,10.838593-14.282349c2.205413-.626343,4.5914-.587647,6.871246-.987366c3.918274-.686828,3.121368-3.979492,2.871826-6.346252-.144348-1.368836-1.978821-3.615784-3.119537-3.657959-10.192658-.377014-18.975159,2.987549-25.544892,11.063659-7.864715,9.66803-7.995727,30.585999,10.944001,35.198304m230.404358-68.647217c-6.470032-2.841187-11.973267.469116-11.960572,6.992615.035889,18.450195-.211486,36.902832.048645,55.348938.042664,3.021972,1.370789,7.696533,3.408753,8.572082c2.251648.967224,6.093017-1.360535,9.045837-2.689209.837525-.376831,1.495545-2.332703,1.369751-3.468506-.577881-5.215576-2.074829-10.391479-2.123352-15.59198-.150207-16.121887.208435-32.248474.210938-49.16394Z" fill="#fefefe"/><path d="M435.531342,1.000004c.952636.661309,1.354126,1.815288,1.932678,1.912211c16.484161,2.761416,32.990845,5.388176,49.479492,8.123497c2.152893.357147,4.227966,1.183286,6.701691,1.965752.450195,2.860378-.717865,2.951471-3.099701,2.418928-9.346894-2.089841-18.708252-4.219652-28.164521-5.689264-12.229553-1.900602-24.516021-3.828355-36.848754-4.573813-16.235321-.981352-32.541108-.767452-48.81131-1.24731-1.582398-.04667-3.127594-1.355313-4.705475-2.494085C393.020905,1,414.041779,1,435.531342,1.000004Z" fill="#f1f4f5"/><path d="M493.997925,778.468384c-8.723999,2.413635-17.389313,4.859192-26.210694,6.42572-10.045776,1.783997-20.23349,2.764282-30.349731,4.164795-.719421.099548-1.358307.781006-1.736084,1.566528C414.979095,791,393.958221,791,372.468658,791c.656922-.998291,1.772126-2.830933,2.909913-2.845032c4.107482-.051086,8.223205.803162,12.334655.793946c34.312592-.076905,68.245331-3.481934,101.620026-11.769593c1.388611-.344848,3.095703.592652,4.664673,1.289063Z" fill="#f1f4f5"/><path d="M518.729614,371.209137c40.462036,3.489441,73.297608,36.735107,76.524842,76.830811c2.862548,35.564971-9.735108,64.169464-39.301514,84.213714-32.905396,22.3078-79.476288,14.642883-106.253876-16.538147-29.325317-34.147735-28.451752-86.559997,2.778443-119.037842c17.727691-18.436004,39.822174-27.399231,66.252105-25.468536M506.306091,503.407684c10.910523,1.620606,20.690247-1.142852,29.803589-7.219604c23.350159-15.569885,23.436463-50.43158,9.1698-67.966004-14.366211-17.656768-38.40799-21.702636-56.296051-9.066436-13.729706,9.698761-19.738922,23.074096-19.409088,39.881286.437744,22.304718,13.990265,39.418305,36.73175,44.370758Z" fill="#03b9d5"/><path d="M158.106567,541.107422c-7.160095-1.467224-10.853637-5.514832-11.281158-12.466553-.193588-3.148132-.677734-6.290832-.681229-9.436401-.046524-41.80954-.031143-83.619202-.030838-125.428833c0-1.166016-.032669-2.333374.011277-3.497803.436569-11.572967,4.790069-16.187958,16.334625-17.243439c1.819183-.16632,3.661285-.136352,5.491852-.115387c14.210403.162781,18.955566,4.733918,19.107833,18.780518.137207,12.65805.025925,25.318664.052018,37.978088.003631,1.76416.166153,3.528015.342544,7.024567c4.314453-4.642151,7.693054-8.101715,10.876023-11.732788c13.16835-15.022186,26.229782-30.138214,39.4234-45.138062c10.637696-12.093994,16.097229-12.482757,28.540055-2.345428.387207.315399.794372.606689,1.176574.927856c10.851014,9.116669,12.04184,16.248444,2.493744,26.633698-14.412429,15.676178-29.628036,30.616669-44.584182,45.789062-7.800034,7.912903-6.902909,5.644715-.115174,12.663452c14.923538,15.431366,30.153687,30.575928,44.76091,46.299958c9.118042,9.815124,8.250824,16.661865-1.727203,25.512451-13.606247,12.068848-18.871491,11.986206-31.043243-1.558472-15.355729-17.087768-30.38733-34.467193-45.506974-51.766113-1.051407-1.202881-1.673385-2.781128-2.495041-4.184845-.626373.413574-1.252761.827148-1.87915,1.240723-.090836,1.733368-.253967,3.466461-.261124,5.200195-.058471,14.157867.019898,28.317291-.165588,42.473358-.11499,8.775391-3.470917,13.080628-12.103073,14.387329-5.326935.806275-10.880371.11615-16.736878.002869Z" fill="#04b9d5"/><path d="M740.02655,341.984192c0,0,.487427-.080414.780213.305786.259094.832794.225403,1.279388.191711,1.725952-4.72522-.316711-9.450378-.633453-14.803467-1.310791-2.119507-.301849-3.611145-.243042-5.102783-.184204-3.087341-.155914-6.174682-.311829-9.87207-.819641-1.78888-.270111-2.967774-.188324-4.146607-.106567-3.738769-.17743-7.477478-.354859-11.88385-.89087-2.479675-.291656-4.29187-.224701-6.104004-.157775-4.07196-.170594-8.143982-.341187-12.872985-.866394-2.15033-.267518-3.643616-.18042-5.136902-.093323-4.401551-.185334-8.803101-.370697-13.862488-.912018-2.150452-.269257-3.643128-.182556-5.135742-.095856-4.401062-.178528-8.802124-.357086-13.88086-.895202-2.488159-.287415-4.298706-.215271-6.109192-.143158-5.397827-.168671-10.795654-.337311-16.900024-.863648-2.839233-.277527-4.971924-.197327-7.104675-.117157-7.728394-.17987-15.456848-.359711-23.925965-.903259-3.850586-.280151-6.960327-.196564-10.070129-.112976-7.728821-.172211-15.457642-.344422-23.927246-.879883-3.852783-.276794-6.964722-.190399-10.076721-.104034-10.393128-.177399-20.786255-.354798-31.941407-.896088-6.192199-.28479-11.622375-.205689-17.052581-.126556-20.395081-.174286-40.790161-.348572-61.950745-.880585-26.303497-.437622-51.841522-.522858-77.379578-.56366-.578033-.000915-1.15686.50174-1.735321.769501-20.078643.279205-40.157257.558441-60.996032.512726-9.152924-.284485-17.546936-.311798-25.937745-.16037-2.376312.042877-4.743194.607635-7.114395.933014-4.402679.178039-8.805374.356109-13.962845.217407-7.514526.043304-14.27423.403412-21.03395.763489-3.748108.182251-7.496216.364532-11.983078.227295-6.498673.047699-12.258591.414947-18.018509.782165-2.751938.180298-5.503891.360565-8.982941.229767-5.825012.056915-10.922913.424896-16.020813.792877-2.425842.166504-4.8517.333069-7.996109.194489-5.478866.056061-10.239136.417236-14.99942.778412-2.755509.185638-5.511017.371307-8.98497.244323-4.81897.053711-8.919487.420105-13.020012.786499-1.773193.159851-3.546379.319672-6.015137.18158-4.457779.068756-8.219993.435425-11.982216.802063-1.773773.164673-3.547554.329376-6.016952.196747-4.458367.071258-8.221115.439819-11.983856.80841-1.768357.182831-3.536705.365632-5.966462.255707-3.465179.214508-6.268959.721771-9.072738,1.229035-3.339493.186035-6.678982.37207-10.485237.112518c1.218349-1.293976,2.903473-2.142334,4.5886-2.990662.595413-.125366,1.190819-.250732,2.475952-.155029c2.67701-.115051,4.664299-.451141,6.651588-.787231c1.036835-.180848,2.073677-.361695,3.781395-.279328c2.475991-.071625,4.281105-.406433,6.086213-.741302c1.117813-.18451,2.235626-.369019,3.945343-.28537c2.456512-.066559,4.321128-.401276,6.185745-.735993.726066-.146911,1.452133-.293884,2.822754-.179351c2.82193-.102509,4.999305-.466523,7.176681-.830536.72702-.141724,1.454041-.283478,2.830811-.162354c3.008819-.431854,6.735077,2.205048,7.43885-2.523254-.043152-8.070984-.086304-16.141998.114937-24.827942-.330292-.949829-.904976-1.284699-1.47966-1.619537-7.339378.01651-14.678764.03302-22.449844-.373749-.586373-.823456-.741051-1.223603-.895722-1.62378c16.975411-17.058624,33.950829-34.117248,51.558777-51.413635.878067-1.042465,1.123581-1.847168,1.36911-2.65187-.038299-5.87053-.076584-11.741059.284577-18.226456.59674-1.229523.794021-1.844162.991302-2.458786c4.797882-4.876908,9.595764-9.753815,15.011749-14.524567.972,5.856674,1.325882,11.607208,1.679749,17.357727.49147.106461.98294.212906,1.474396.319351.662033-.942413,1.32405-1.884826,1.986053-2.82724c8.845337-8.92131,17.690674-17.84262,27.153748-26.963516c7.160156-6.596649,13.656997-13.041504,20.282058-19.351776c1.380036-1.314484,3.234391-2.130997,4.870163-3.177002c20.505631,20.476181,41.021942,40.941696,61.493408,61.451996c1.401642,1.404312,2.467194,3.144043,3.791382,4.860397c37.73288-37.478515,74.654206-74.15097,112.28067-110.936126c1.259461-.18126,1.813813-.249848,2.368134-.318421c19.065704,19.010773,38.131378,38.02153,57.413635,57.658386.968262,1.108643,1.719971,1.591217,2.47168,2.073792.162598-.97934.325165-1.958664.487732-2.938004-.059357-5.206085-.118713-10.41217.380249-16.12175c1.172516-.593185,1.786743-.682846,2.40094-.772521c1.3862,1.298568,2.7724,2.597122,4.330231,4.511199c3.828582,4.02443,7.485534,7.433304,11.142486,10.842194.27002.190567.540009.381134.897461,1.085587.59787,1.012405,1.108307,1.51091,1.618744,2.00943.161285,7.288864.322571,14.577728.502808,22.677444c2.649078,3.288239,5.279235,5.76561,7.909362,8.24295c7.059174,7.230713,14.118348,14.461441,21.524048,22.047135c22.309754-22.25679,44.135315-44.030487,66.655274-65.937363c1.502746-.173889,2.310974-.214599,3.119262-.255279c16.431885,16.377517,32.863709,32.75505,49.533326,49.764389c1.026367,1.054931,1.814941,1.478042,2.603576,1.901168.10968-1.014556.219422-2.029113.329102-3.043655-.062805-4.507416-.125672-9.014847.23706-13.930511.782227-.553055,1.138855-.697876,1.495545-.842682c5.1875,5.105362,10.375061,10.210724,15.630432,16.09938.060303,6.194306-.045349,11.608139.110962,17.014389.041443,1.434037.888489,2.844757,1.3656,4.26619c17.094117,17.054748,34.188233,34.109497,51.384156,51.778076.072326,1.266663.042907,1.919495.013488,2.572357-7.411071.090912-14.822082.181793-23.062194.533173-1.033997,8.922363-1.250367,17.584015-1.397705,26.246856-.005311.310334.670593.632264,1.028991.948792c0,0,.284241.061066.447449.519257c2.127014.489349,4.09082.520538,6.054626.551696c1.765564.106934,3.531128.213868,5.855408.731018c2.089173.354065,3.61969.297944,5.150147.241822c1.373169.090301,2.746338.180664,4.665283.68457c2.141357.38443,3.736938.355286,5.33258.326111c1.444092.105652,2.888123.211304,4.868103.734375c2.066163.375519,3.596436.333649,5.126648.291809c1.055237.056091,2.110535.112152,3.686585.590759c2.12146.402313,3.722168.38208,5.322876.361817c1.442261.103607,2.884582.207183,4.858887.73468c2.066528.380401,3.601013.336822,5.135437.293274c1.054321.07312,2.108703.146209,3.694152.665527c1.815247.648041,3.099366.849915,4.383484,1.051758M478.501099,324.089508c7.73529,0,15.470611,0,23.808899,0c0-17.19754,0-33.916809,0-51.203888c6.502197,0,12.392761,0,18.355224,0-42.757232-42.477569-85.174621-84.617477-126.111938-125.287033-41.484925,41.171448-83.787537,83.154388-126.213959,125.260239c5.617676,0,11.534027,0,18.051514,0c0,2.318786,0,4.108917,0,5.899048.00003,13.494171.144561,26.990783-.086762,40.480987-.070648,4.121368,1.072022,5.302368,5.303223,5.284363c61.964569-.26358,123.929962-.337921,186.893799-.433716m190.45111-1.609741c0-7.256073,0-14.512116,0-22.535553c5.922364,0,11.054627,0,15.349183,0-36.749634-36.893738-73.488404-73.776642-110.239624-110.671967-20.360047,20.634217-41.032166,41.584687-62.092987,62.929123c8.454559,8.479538,17.379669,17.431015,26.304718,26.382462-.212464.442749-.424988.885528-.637452,1.328277-9.354248,0-18.708496,0-28.443328,0c0,13.181855.239959,25.656617-.116669,38.114319-.145264,5.074005,1.13739,6.650879,6.477844,6.931854c49.904541,2.625855,99.790466,5.605225,149.682983,8.460846c1.083435.062012,2.181397-.129394,3.716919-.23236c0-3.44751,0-6.581788-.001587-10.707001m-467.181198,6.018341c25.726746-1.245819,51.453476-2.491608,77.496964-3.752747c0-14.317871.061035-28.134216-.132385-41.947021-.013428-.958222-1.789856-2.423889-2.97519-2.711701-1.888763-.458679-3.969909-.125946-5.969726-.126098-6.539002-.000489-13.078003-.000183-19.616989-.000183-.298645-.596009-.59729-1.192047-.895935-1.788056c9.020919-8.934082,18.041824-17.868164,26.540969-26.285522-21.163085-20.943894-42.179351-41.742478-62.091079-61.447983-36.287644,36.102478-73.162995,72.789658-110.391388,109.828079c4.02388,0,8.110946.121582,12.186592-.041717c2.830933-.113465,3.85572.97525,3.769432,3.779693-.148552,4.828278-.038727,9.66446-.038193,14.497345.000572,5.080658.000138,10.161286.000138,15.258057c27.654541-1.768921,54.417388-3.480835,82.11679-5.262146Z" fill="#101010"/><path d="M311.358704,527.658569c-22.162812-21.714782-27.428254-49.644867-14.434082-75.402069c13.075958-25.91925,44.577392-39.92691,73.202941-32.550903c28.343659,7.303314,48.023316,33.576599,46.85376,63.044159-1.053314,26.538818-14.102569,45.62384-38.230682,55.997619-24.209656,10.408875-46.876648,5.922669-67.391937-11.088806m36.447479-68.576202c-16.548432,4.751434-19.446594,19.46817-15.070313,31.093506c3.822571,10.154602,17.079407,15.741638,27.447937,12.158478c12.825989-4.432373,18.74997-15.826264,15.079468-29.003022-2.932739-10.528228-14.80777-16.956268-27.457092-14.248962Z" fill="#03b9d5"/><path d="M611.803833,511.11615c-.387939-5.921204-1.003906-11.401276-1.016724-16.882691-.086486-36.977661-.045227-73.955596-.045227-110.933441c0-.499695-.001342-.99942.001404-1.499115.073242-13.372314,3.890259-17.662109,17.311951-18.499115c4.255859-.265442,8.673401.271637,12.864136,1.161103c6.665893,1.414825,10.104187,6.582733,10.141784,14.680908.081238,17.489136.02948,34.978912.030518,52.468414.001159,19.155182-.014221,38.310425.017517,57.465546.004455,2.660217.197998,5.322632.373413,7.979431.263367,3.987335,2.452393,5.86676,6.428833,6.164307c12.472412.93338,15.148865,3.54898,15.685181,16.114685.189636,4.443542-.333008,8.987548-1.104065,13.385131-1.053101,6.006531-4.244446,9.062867-10.776001,9.013306-9.274292-.070434-18.636231-.534119-27.786133-1.954285-10.639954-1.651367-17.65387-8.13092-20.085754-18.961669-.691834-3.080872-1.328064-6.174317-2.040833-9.702515Z" fill="#03b9d5"/><path d="M589.653198,576.614136c1.621643-7.191162,5.774781-10.268067,13.143311-8.652466.620849-10.737061,6.727112-15.837097,16.182434-17.234985c12.122375-1.79242,23.281677,2.715515,27.923401,12.189331c7.250671,14.798889,7.234497,30.003601-.664307,44.619506-4.786072,8.85608-13.49823,11.909974-22.944885,13.1167-20.886597,2.668152-35.385681-8.850586-35.865296-28.91803-.117004-4.896362,1.356568-9.830628,2.225342-15.120056m38.143677,31.941589c11.376404-7.190369,14.461365-33.899841,5.044495-43.676086-3.936097-4.086426-10.93628-5.231995-15.136963-2.477234-3.922058,2.572082-4.798462,7.370727-1.838196,13.503174c2.0625,4.272583,4.811035,8.21405,7.248779,12.296142-6.993042,4.540467-10.319946,3.936035-14.25122-2.770874-1.723084-2.939697-3.082032-6.092895-4.672791-9.282409-4.980896,7.454956-4.479187,20.4151.86908,27.466796c5.076233,6.692933,12.383606,8.438416,22.736816,4.940491Z" fill="#2b2b2b"/><path d="M474.191742,608.937988c-.000397-2.655517.001617-4.82196-.000977-6.988403-.00769-6.425537.976807-13.029907-3.814849-18.516663-.686219-.785705-.712586-2.147705-1.192872-3.73352c5.840149-.000855,5.567749-4.088379,5.297059-7.803101-.499909-6.861389-1.321137-13.699341-2.136658-21.824096c4.535583.834899,9.168304,1.483459,13.652649,2.685546.895416.239991,1.723144,2.591797,1.728058,3.97284.021301,5.993042-.168488,11.993103-.497651,17.978638-.167053,3.038208.887299,4.149902,3.966065,4.053039c5.816254-.183166,11.642334-.052917,18.847168-.052917c0-6.353394-.163178-12.43927.039947-18.512879.273224-8.169494,3.443085-10.536987,12.413056-9.423462.503113,22.498108-4.044007,45.39856,4.220703,68.748108-3.485779.74646-7.387268,2.116882-11.295471,2.136353-1.41864.007141-3.871796-3.088929-4.100861-4.981201-.898346-7.420716-1.114319-14.925171-1.542816-22.400879-.092041-1.605835-.013458-3.221558-.013458-5.31189-6.971192,0-13.282929-.190613-19.561737.178528-1.110047.065246-2.943238,2.445923-2.974121,3.791138-.156556,6.820251-.262146,13.699157.47998,20.462524.50351,4.58844-1.349213,5.917908-5.225037,6.443298-7.829864,1.061463-8.104553.763672-8.288177-10.901001Z" fill="#2b2b2b"/><path d="M375.392242,595.489624c2.101777-.500671,3.846436-.85852,5.859284-1.271362.490326,3.806701.829834,7.085571,1.353699,10.334778.56491,3.503723,2.827667,5.722534,6.259369,4.862121c4.553466-1.141723,9.465393-2.368652,13.168884-5.027588c5.433594-3.901123,4.771118-10.077575-1.020935-13.500183-4.415436-2.609192-9.285828-4.465149-14.005341-6.539001-6.769806-2.974854-13.516113-6.379639-13.467651-14.936097.048584-8.580444,6.662353-12.682189,13.523071-15.705444c8.535553-3.76123,17.634918-4.312195,26.778656-3.704468c1.256897,8.250122-.494018,10.277466-7.810059,10.822205-4.266265.317566-8.623748,1.098633-12.626709,2.541138-1.962005.707031-4.322113,3.317382-4.457733,5.212646-.127868,1.786926,2.026398,4.498291,3.882172,5.513489c4.357697,2.38385,9.131561,4.010254,13.747009,5.919067c6.817292,2.819702,12.324555,6.953919,13.293122,14.840149c1.031097,8.395752-3.220551,14.338135-9.755188,18.954346-10.800415,7.629761-23.122162,7.737732-35.535401,6.809875-1.214813-.090881-3.114929-2.503967-3.217529-3.944458-.389557-5.469421-.458801-11.006225-.002472-16.463867.135132-1.616028,2.392029-3.054626,4.033752-4.717346Z" fill="#2c2c2c"/><path d="M570.030701,579.668335c8.976928,5.158997,12.210327,12.129639,10.444824,21.943115-1.731323,9.623413-8.574219,16.818054-17.441895,18.338684-14.463134,2.47992-25.580078-4.912231-27.170593-18.067199-1.729309-14.302308,8.772156-26.869812,23.479126-28.090332.663208-.055054,1.341492.017517,1.995911-.081116c4.608764-.694031,8.032531.289429,8.692627,5.956848m-21.726136,13.7276c.016419,3.296082-.503723,6.707398.173768,9.861511c1.039917,4.841187,5.49414,7.415283,10.693237,7.008667c5.062073-.395935,8.685852-4.218689,9.468445-9.988342.813232-5.995605-1.109619-9.509521-5.634644-11.417175-1.825561-.769471-3.242981-2.506958-5.366638-4.225037-4.105042.618713-7.246887,3.475952-9.334168,8.760376Z" fill="#2c2c2c"/><path d="M442.253967,619.870544c-18.532745-4.542541-18.401733-25.46051-10.537018-35.12854c6.569733-8.07611,15.352234-11.440673,25.544892-11.063659c1.140716.042175,2.975189,2.289123,3.119537,3.657959.249542,2.36676,1.046448,5.659424-2.871826,6.346252-2.279846.399719-4.665833.361023-6.871246.987366-7.096772,2.015686-10.751831,6.970459-10.838593,14.282349-.075622,6.374145,3.572724,10.545837,9.915222,10.728393c3.764832.108398,7.550202-.498291,11.421662-.79071c3.050201,7.28717,1.25003,10.894775-6.578064,11.5979-3.917847.351929-7.928772-.332092-12.304566-.61731Z" fill="#2d2d2d"/><path d="M673.144653,551.688477c-.081848,16.52008-.44049,32.646667-.290283,48.768554.048523,5.200501,1.545471,10.376404,2.123352,15.59198.125794,1.135803-.532226,3.091675-1.369751,3.468506-2.95282,1.328674-6.794189,3.656433-9.045837,2.689209-2.037964-.875549-3.366089-5.55011-3.408753-8.572082-.260131-18.446106-.012756-36.898743-.048645-55.348938-.012695-6.523499,5.49054-9.833802,12.039917-6.597229Z" fill="#2e2e2e"/><path d="M497.038147,14.281118c14.361542,4.170885,28.966797,8.084969,42.996704,13.491873c13.755676,5.301232,27.236633,11.535187,40.266541,18.438713c13.191406,6.989144,25.682495,15.300114,38.60498,23.356747-.940857,4.365997-2.641357,1.046982-3.674622.469719-15.169921-8.475575-30.048522-17.502224-45.452636-25.521618-21.90448-11.403488-45.085816-19.71076-68.832215-26.467129-1.503692-.427839-2.620269-2.216133-3.908752-3.768305Z" fill="#f1f4f5"/><path d="M350.379272,333.049683c.222321-.455658.801148-.958313,1.379181-.957398c25.538056.040802,51.076081.126038,76.914338.48996-1.830201.422424-3.960541.679779-6.091034.681061-23.948761.014129-47.897553-.011078-72.202485-.213623Z" fill="#4d4d4d"/><path d="M215.305969,180.405899c-1.556701,1.356857-3.411056,2.17337-4.791092,3.487854-6.625061,6.310272-13.121902,12.755127-20.001785,19.164322c7.005524-7.566895,14.319061-15.175217,21.752899-22.664093.539673-.543655,1.953507-.219574,3.039978.011917Z" fill="#4d4d4d"/><path d="M751.902893,343.129822c4.92511.261627,9.869019.341339,14.768494.850097c3.16217.328339,6.258972,1.285584,9.385132,1.960938-.073304.530334-.146607,1.060669-.21991,1.590973-8.070984-.735565-16.141907-1.4711-24.479675-2.713043.004028-.900574.275024-1.29477.545959-1.688965Z" fill="#919191"/><path d="M45.003777,344.016479c-6.872197.698548-13.742545,1.416138-20.617583,2.085541-2.469532.240418-4.950359.364807-7.845068.229523-.459755-.660095-.500473-1.007568-.541187-1.355042c7.485189-.688995,14.975536-1.328369,22.451683-2.104461c1.715439-.178101,3.382042-.826569,5.420326-.795655.610085.955292.870957,1.447693,1.131829,1.940094Z" fill="#787878"/><path d="M256.335632,334.337036c2.010529-.515259,4.377411-1.080017,6.753723-1.122894c8.390809-.151428,16.784821-.124115,25.496613.089325-10.417236.577057-21.153473.900238-32.250336,1.033569Z" fill="#4d4d4d"/><path d="M675.467773,333.724823c-.381286.164368-1.05719-.157562-1.051879-.467896.147338-8.662841.363708-17.324493.913696-26.170318.283691,8.596466.222412,17.376892.138183,26.638214Z" fill="#444"/><path d="M162.578964,230.282806c-.161896.868653-.823913,1.811066-1.485946,2.753479-.491456-.106445-.982926-.21289-1.474396-.319351-.353867-5.750519-.707749-11.501053-1.394821-17.526901c1.879058-1.568634,2.033111-1.574127,2.108688.545639.128189,3.59465-.107788,7.206467.12114,10.791153.083389,1.305847,1.057495,2.55481,2.125335,3.755981Z" fill="#4d4d4d"/><path d="M647.469116,251.650146c-.468078-.945114-1.315124-2.355834-1.356567-3.789871-.156311-5.40625-.050659-10.820083.030334-16.717697.44159,3.192597.913147,6.865265,1.146241,10.55304.199157,3.150406.12445,6.31813.179992,9.954528Z" fill="#444"/><path d="M221.341202,335.310852c6.396683-.542877,13.156387-.902985,20.238128-1.014709-6.410354.564758-13.142715.881134-20.238128,1.014709Z" fill="#4d4d4d"/><path d="M191.341904,336.313477c5.394592-.543183,11.15451-.910431,17.235519-1.028443-5.409332.567566-11.139755.885956-17.235519,1.028443Z" fill="#4d4d4d"/><path d="M491.411865,333.767212c5.107117-.309815,10.537293-.388916,16.264832-.181702-5.115662.328339-10.528687.370331-16.264832.181702Z" fill="#4d4d4d"/><path d="M166.33342,337.345825c4.737304-.55365,9.835205-.921631,15.252487-1.038879-4.751038.575348-9.821472.899933-15.252487,1.038879Z" fill="#4d4d4d"/><path d="M751.536987,343.016785c.094971.507232-.176025.901428-.480591,1.536224-3.124145.079559-6.21466-.081482-9.681579-.389801-.342651-.593842-.30896-1.040436-.326965-1.819061c3.339904-.034851,6.731567.262359,10.489135.672638Z" fill="#444"/><path d="M473.880859,190.70018c-3.592224-3.081177-7.249176-6.490051-10.914856-10.238693c3.610871,3.077148,7.2305,6.494064,10.914856,10.238693Z" fill="#444"/><path d="M143.33902,338.312592c4.398559-.540711,9.158829-.901886,14.240356-1.017304-4.412063.562805-9.14534.879822-14.240356,1.017304Z" fill="#4d4d4d"/><path d="M121.332275,339.339935c3.740563-.54245,7.84108-.908844,12.257813-1.026458-3.755158.56668-7.826508.884613-12.257813,1.026458Z" fill="#4d4d4d"/><path d="M15.739921,344.779999c.300732.543976.34145.891449.40268,1.499847-3.272579.670899-6.56567,1.080841-9.858761,1.490753-.059381-.474884-.118762-.949768-.178144-1.424652c3.124737-.587494,6.249471-1.174957,9.634225-1.565948Z" fill="#a1a1a1"/><path d="M85.331055,341.32901c3.405838-.544922,7.168586-.913483,11.248954-1.040253-3.418937.566742-7.155494.891663-11.248954,1.040253Z" fill="#4d4d4d"/><path d="M103.332687,340.321594c3.404496-.54071,7.16671-.907379,11.246872-1.032928-3.417755.56308-7.15345.88504-11.246872,1.032928Z" fill="#4d4d4d"/><path d="M484.814301,224.717896c-2.570466-2.151932-5.200623-4.629303-7.796723-7.456803c2.601746,2.143707,5.169403,4.637543,7.796723,7.456803Z" fill="#444"/><path d="M63.739159,339.582489c-1.385971,1.025116-3.071095,1.873474-4.743451,3.104034-.858039.518891-1.728843.65561-2.778053.274506-.19778-.983124-.217159-1.448456-.236534-1.913788c2.486298-.54718,4.972595-1.09433,7.758038-1.464752Z" fill="#4d4d4d"/><path d="M540.389282,334.785645c2.805481-.312836,5.91742-.399231,9.306275-.204072-2.815369.331208-5.907593.38086-9.306275.204072Z" fill="#4d4d4d"/><path d="M574.392334,335.77005c2.804199-.310547,5.91394-.394134,9.301025-.19693-2.813659.328491-5.904602.37619-9.301025.19693Z" fill="#4d4d4d"/><path d="M55.607914,341.014709c.392582.497864.411961.963196.398807,1.777894-2.739456.665557-5.446372.98172-8.584747.93103-.415409-.783936-.399364-1.201019-.383316-1.618103.448441-.045532.896881-.091034,2.034783.009521c1.764789-.251281,2.840114-.64859,3.915443-1.045868.748608-.028991,1.497215-.057983,2.61903-.054474Z" fill="#101010"/><path d="M70.371201,342.581604c2.36753-.451447,5.17131-.95871,8.260513-1.221313-2.417793.551605-5.121033.858551-8.260513,1.221313Z" fill="#4d4d4d"/><path d="M113.106049,333.334656c-.376175,4.473175-4.102433,1.836273-6.740403,2.304992c1.951676-.833953,4.182236-1.441925,6.740403-2.304992Z" fill="#4d4d4d"/><path d="M608.355103,336.784882c1.860473-.305726,3.993164-.385926,6.371765-.193573-1.869263.321411-3.984436.370269-6.371765.193573Z" fill="#4d4d4d"/><path d="M102.772827,335.606934c-1.786217.522216-3.963592.88623-6.414566,1.024475c1.825417-.544739,3.924416-.863678,6.414566-1.024475Z" fill="#4d4d4d"/><path d="M72.798111,338.662415c-1.619545.490692-3.606834.826782-5.979134.975341c1.613793-.501678,3.612595-.815826,5.979134-.975341Z" fill="#4d4d4d"/><path d="M689.338989,340.7724c1.558838-.293244,3.371033-.360199,5.410645-.156433-1.567444.308075-3.362366.345398-5.410645.156433Z" fill="#4d4d4d"/><path d="M632.338989,337.767822c1.559021-.299804,3.369568-.371948,5.406983-.173279-1.5672.314209-3.361389.357575-5.406983.173279Z" fill="#4d4d4d"/><path d="M82.734261,337.621735c-1.505906.509521-3.31102.844329-5.39135.94577c1.513893-.529083,3.303024-.824768,5.39135-.94577Z" fill="#4d4d4d"/><path d="M92.792618,336.615356c-1.492684.494385-3.3573.829102-5.474945.934021c1.53231-.517761,3.317665-.805725,5.474945-.934021Z" fill="#4d4d4d"/><path d="M681.619873,335.079559c-1.636719.165955-3.600525.134766-5.697998-.212249c1.701172-.205536,3.536011-.095185,5.697998.212249Z" fill="#444"/><path d="M671.309692,339.807587c1.2594-.308319,2.752686-.395417,4.453797-.216584-1.268067.323182-2.743958.380494-4.453797.216584Z" fill="#4d4d4d"/><path d="M721.639404,339.03714c-1.285522.222076-2.88623.242309-4.636718-.015289c1.340637-.247376,2.831054-.21695,4.636718.015289Z" fill="#444"/><path d="M652.312988,338.797791c1.257202-.306,2.749878-.392701,4.449707-.213501-1.266662.321502-2.740478.377136-4.449707.213501Z" fill="#4d4d4d"/><path d="M712.683716,338.092163c-1.268799.236054-2.799072.277924-4.525391.030884c1.290589-.267639,2.777283-.246338,4.525391-.030884Z" fill="#444"/><path d="M702.636108,337.05835c-1.281372.231018-2.876953.260162-4.629882.018249c1.333679-.254059,2.824646-.237121,4.629882-.018249Z" fill="#444"/><path d="M731.686768,340.072754c-1.272278.237701-2.806763.28128-4.535035.032288c1.295044-.270539,2.783936-.248475,4.535035-.032288Z" fill="#444"/><path d="M721.317627,342.749939c1.266235-.287842,2.757873-.346649,4.453613-.138702-1.273254.300415-2.750732.334075-4.453613.138702Z" fill="#4d4d4d"/><path d="M692.689636,336.055908c-1.267578.249726-2.798095.305847-4.527099.074372c1.289062-.281098,2.776611-.274537,4.527099-.074372Z" fill="#444"/><path d="M455.38208,192.822571c.147034.72554-.015533,1.704864-.178131,2.684204-.751709-.482575-1.503418-.965149-2.28653-1.782868.697388-.439285,1.426239-.543411,2.464661-.901336Z" fill="#444"/><path d="M628.348022,229.820038c.180848.714203.071106,1.72876-.038574,2.743316-.788635-.423126-1.577209-.846237-2.418945-1.599807.686951-.501358,1.426941-.672272,2.457519-1.143509Z" fill="#444"/><path d="M699.114746,306.653625c-.209534-.829589-.180115-1.482421-.095825-2.458007.695984.283996,1.337097.890716,1.97821,1.497436-.54779.37909-1.095581.758179-1.882385.960571Z" fill="#444"/><path d="M458.412323,175.374603c-.55365.389572-1.167877.479233-2.245331.616059-.356079-.743668-.248932-1.534485-.141784-2.325303.775512.469773,1.551055.93956,2.387115,1.709244Z" fill="#444"/><path d="M707.27832,341.813843c.97406-.300873,2.152954-.38266,3.513672-.204468-.981689.314545-2.145325.369049-3.513672.204468Z" fill="#4d4d4d"/><path d="M739.738159,341.827087c-.995727-.044738-2.279846-.246612-3.72644-.743774c1.037719-.001282,2.237854.292694,3.72644.743774Z" fill="#444"/><path d="M52.779308,340.875427c-.865753.591034-1.941078.988343-3.368702,1.273438.81818-.563904,1.988655-1.015564,3.368702-1.273438Z" fill="#4d4d4d"/><path d="M576.12207,180.598801c-.757812.339676-1.56604.380386-2.778808.393997.639831-.249054,1.684021-.471008,2.778808-.393997Z" fill="#444"/><path d="M46.663879,341.998688c.358731.523926.342686.941009.334778,1.671112-.441234.409851-.890613.506653-1.667434.475036-.588318-.620758-.84919-1.113159-1.221024-1.867309.652328-.30307,1.415615-.34436,2.55368-.278839Z" fill="#4d4d4d"/><path d="M476.55072,193.837036c-.599365-.212646-1.109802-.711151-1.599335-1.496551.576691.21231,1.132477.711502,1.599335,1.496551Z" fill="#444"/><path d="M395.274475,135.507172c-.510162.335998-1.064514.404586-2.035736.424804.385925-.262985,1.188751-.477615,2.035736-.424804Z" fill="#4d4d4d"/><path d="M630.312012,214.470306c-.297547.421006-.654175.565827-1.302857.701828-.328491-.409988-.364929-.811172-.401367-1.212356.54834.07811,1.09668.156235,1.704224.510528Z" fill="#444"/><path d="M142.665085,229.89859c.064758.599808-.132523,1.214447-.624619,1.98877-.075683-.551529.143463-1.262726.624619-1.98877Z" fill="#4d4d4d"/><path d="M88.436127,304.702454c.441902.332244.59658.732391.734962,1.456298-.516853.2771-1.01741.230439-1.517967.183808.165253-.524079.330513-1.048126.783005-1.640106Z" fill="#4d4d4d"/><path d="M141.400726,250.736435c.00499.637283-.240524,1.441986-.83844,2.294998-.03894-.676987.274491-1.402283.83844-2.294998Z" fill="#4d4d4d"/><path d="M112.210381,306.915344c.433227.051544,1.007911.386414,1.37133.864197-.550797-.098358-.890335-.3396-1.37133-.864197Z" fill="#4d4d4d"/><path d="M505.880249,503.348938c-22.315643-4.893707-35.868164-22.007294-36.305908-44.312012-.329834-16.80719,5.679382-30.182525,19.409088-39.881286c17.888061-12.6362,41.92984-8.590332,56.296051,9.066436c14.266663,17.534424,14.180359,52.396119-9.1698,67.966004-9.113342,6.076752-18.893066,8.84021-30.229431,7.160858Z" fill="#fcfefe"/><path d="M478.00177,324.077698c-62.464508.107605-124.429901.181946-186.39447.445526-4.231201.018005-5.373871-1.162995-5.303223-5.284363.231323-13.490204.086792-26.986816.086762-40.480987c0-1.790131,0-3.580262,0-5.899048-6.517487,0-12.433838,0-18.051514,0c42.426422-42.105851,84.729034-84.088791,126.213959-125.260239c40.937317,40.669556,83.354706,82.809464,126.111938,125.287033-5.962463,0-11.853027,0-18.355224,0c0,17.287079,0,34.006348,0,51.203888-8.338288,0-16.073609,0-24.308228-.01181m-85.370422-61.265503c.643097-4.080567-.948365-5.424164-5.174073-5.367493-13.007476.174439-12.744934.007996-13.10028,12.501404-.14618,5.138458,1.775848,5.978119,6.313934,5.872192c11.95636-.278991,11.960876-.08493,11.960419-13.006103m-8.174469-8.842423c2.577881,0,5.155731,0,7.757904,0c0-6.446029,0-11.997436,0-17.597244-6.005524,0-11.589875,0-17.399658,0c0,5.894943,0,11.461487,0,17.597244c3.111358,0,5.899414,0,9.641754,0m23.792389,3.583969c-3.947754,0-7.895508,0-11.846436,0c0,6.377564,0,12.075013,0,17.78357c6.032654,0,11.599609,0,17.374237,0c0-5.967224,0-11.560578,0-17.506256-1.693634-.101776-3.151947-.189423-5.527801-.277314m1.055664-3.592254c1.56311-.728348,4.406768-1.348557,4.478881-2.20282.42688-5.054962.21048-10.164246.21048-15.411499-6.281769,0-11.85498,0-17.803894,0-.090698,1.883713-.229126,3.496857-.23645,5.11058-.056824,12.504563-.048981,12.504593,13.350983,12.503739Z" fill="#fcfcfc"/><path d="M668.953003,322.97522c.000793,3.62976.000793,6.764038.000793,10.211548-1.535522.102966-2.633484.294372-3.716919.23236-49.892517-2.855621-99.778442-5.834991-149.682983-8.460846-5.340454-.280975-6.623108-1.857849-6.477844-6.931854.356628-12.457702.116669-24.932464.116669-38.114319c9.734832,0,19.08908,0,28.443328,0c.212464-.442749.424988-.885528.637452-1.328277-8.925049-8.951447-17.850159-17.902924-26.304718-26.382462c21.060821-21.344436,41.73294-42.294906,62.092987-62.929123c36.75122,36.895325,73.48999,73.778229,110.239624,110.671967-4.294556,0-9.426819,0-15.349183,0c0,8.023437,0,15.27948.000794,23.031006m-97.858276-36.132752c-4.567994.325348-9.135987.650696-14.364563,1.340515-.16742,4.117066-.495911,8.238984-.371888,12.34726.026062.864349,1.713868,1.678558,3.563111,2.434875c4.279968,0,8.559875,0,13.361206,0c0-5.426757,0-10.218811.437561-15.28247-.564453-.29419-1.128845-.58841-2.625427-.84018m1.190673-2.206421c.339722-.531219.679444-1.062439.983094-2.524932c0-4.558625,0-9.117249,0-13.964295-5.510559,0-10.28003,0-15.861634.064179-.311096,4.957855-.647766,9.914611-.864196,14.876617-.011902.273102.975647.589813,2.417724.993378c4.356262.037353,8.712525.074676,13.325012.555053m19.80243-11.010315c-.088135-1.745117-.17627-3.490234-.264038-5.228637-5.503113,0-10.397889,0-15.304871,0c0,5.380279,0,10.407898,0,15.399353c5.296997,0,10.192078,0,15.568909,0c0-3.310578,0-6.264252,0-10.170716m-.262146,14.214234c-5.095276-.440827-10.190491-.881653-15.443543-1.336151c0,6.050232,0,10.958618,0,15.811004c14.840332,2.933686,15.768311,2.20636,15.710083-12.055206-.002014-.497955-.020264-.99588-.26654-2.419647Z" fill="#fcfcfc"/><path d="M201.302734,328.532837c-27.231125,1.746582-53.993972,3.458496-81.648513,5.227417c0-5.096771.000434-10.177399-.000138-15.258057-.000534-4.832885-.110359-9.669067.038193-14.497345.086288-2.804443-.938499-3.893158-3.769432-3.779693-4.075646.163299-8.162712.041717-12.186592.041717c37.228393-37.038421,74.103744-73.725601,110.391388-109.828079c19.911728,19.705505,40.927994,40.504089,62.091079,61.447983-8.499145,8.417358-17.52005,17.35144-26.540969,26.285522.298645.596009.59729,1.192047.895935,1.788056c6.538986,0,13.077987-.000306,19.616989.000183c1.999817.000152,4.080963-.332581,5.969726.126098c1.185334.287812,2.961762,1.753479,2.97519,2.711701.19342,13.812805.132385,27.62915.132385,41.947021-26.043488,1.261139-51.770218,2.506928-77.965241,3.787476m8.773545-60.475769c-4.264466,0-8.528931,0-13.350464,0c0,5.432312,0,10.209747-.428909,15.262909.558822.295013,1.11763.590027,2.607467.833771c4.361221-.053742,8.722428-.107483,13.907593-.087647c1.091293-.040436,2.182602-.080872,4.191238.004883c3.813462.023041,7.638565.216156,11.432709-.043213c1.025131-.070068,2.741104-1.459259,2.79866-2.331451.288742-4.374817.132355-8.778992.132355-13.520264-5.569244,0-10.34436,0-15.841278-.151795-1.507095-.019622-3.014191-.039215-5.449371.032807m19.02095,18.784271c-4.519196.332672-9.038391.665344-14.148254.995514-.767243-.013733-1.534501-.027466-3.039368-.591034-4.647263-.148895-9.29451-.297821-14.182266-.897125-.324326.539581-.648651,1.079162-.960648,2.556732c0,4.556152,0,9.112305,0,14.145416c5.338944,0,9.790756,0,14.565354.472321c1.887969-.164063,3.775955-.328125,6.594055-.560608c4.218414-.178955,10.218887,1.240143,12.18808-.95578c2.279052-2.541473,1.013839-8.263214,1.28009-12.604736.030044-.48993.013122-.982758.442215-1.773194-.602951-.280456-1.205902-.560913-2.739258-.787506Z" fill="#fcfcfc"/><path d="M348.203247,458.990417c12.252258-2.615356,24.127289,3.812684,27.060028,14.340912c3.670502,13.176758-2.253479,24.570649-15.079468,29.003022-10.36853,3.58316-23.625366-2.003876-27.447937-12.158478-4.376281-11.625336-1.478119-26.342072,15.467377-31.185456Z" fill="#f9fdfe"/><path d="M627.445374,608.717041c-10.001709,3.336609-17.309082,1.591126-22.385315-5.101807-5.348267-7.051696-5.849976-20.01184-.86908-27.466796c1.590759,3.189514,2.949707,6.342712,4.672791,9.282409c3.931274,6.706909,7.258178,7.311341,14.25122,2.770874-2.437744-4.082092-5.186279-8.023559-7.248779-12.296142-2.960266-6.132447-2.083862-10.931092,1.838196-13.503174c4.200683-2.754761,11.200866-1.609192,15.136963,2.477234c9.41687,9.776245,6.331909,36.485717-5.395996,43.837402Z" fill="#f6f6f6"/><path d="M548.443176,593.007446c1.94867-4.895935,5.090515-7.753174,9.195557-8.371887c2.123657,1.718079,3.541077,3.455566,5.366638,4.225037c4.525025,1.907654,6.447876,5.42157,5.634644,11.417175-.782593,5.769653-4.406372,9.592407-9.468445,9.988342-5.199097.406616-9.65332-2.16748-10.693237-7.008667-.677491-3.154113-.157349-6.565429-.035157-10.25Z" fill="#f4f4f4"/><path d="M392.631287,263.272186c.000518,12.461182-.003998,12.267121-11.960358,12.546112-4.538086.105927-6.460114-.733734-6.313934-5.872192.355346-12.493408.092804-12.326965,13.10028-12.501404c4.225708-.056671,5.81717,1.286926,5.174012,5.827484Z" fill="#121212"/><path d="M383.979736,253.969772c-3.265197,0-6.053253,0-9.164611,0c0-6.135757,0-11.702301,0-17.597244c5.809783,0,11.394134,0,17.399658,0c0,5.599808,0,11.151215,0,17.597244-2.602173,0-5.180023,0-8.235047,0Z" fill="#121212"/><path d="M408.708069,257.553864c1.917053.087768,3.375366.175415,5.069.277191c0,5.945678,0,11.539032,0,17.506256-5.774628,0-11.341583,0-17.374237,0c0-5.708557,0-11.406006,0-17.78357c3.950928,0,7.898682,0,12.305237.000123Z" fill="#101010"/><path d="M408.826721,253.96167c-12.921753.000671-12.929596.000641-12.872772-12.503922.007324-1.613723.145752-3.226867.23645-5.11058c5.948914,0,11.522125,0,17.803894,0c0,5.247253.2164,10.356537-.21048,15.411499-.072113.854263-2.915771,1.474472-4.957092,2.203003Z" fill="#101010"/><path d="M592.08783,274.102112c0,3.430084,0,6.383758,0,9.694336-5.376831,0-10.271912,0-15.568909,0c0-4.991455,0-10.019074,0-15.399353c4.906982,0,9.801758,0,15.304871,0c.087768,1.738403.175903,3.48352.264038,5.705017Z" fill="#101010"/><path d="M591.943481,288.302887c.128479.960846.146729,1.458771.148743,1.956726.058228,14.261566-.869751,14.988892-15.710083,12.055206c0-4.852386,0-9.760772,0-15.811004c5.253052.454498,10.348267.895324,15.56134,1.799072Z" fill="#121212"/><path d="M558.218994,268.14682c4.76947,0,9.538941,0,15.0495,0c0,4.847046,0,9.40567-.252259,14.54892-.497192.888794-.742126,1.193023-.98706,1.497253-4.356262-.037323-8.712525-.074646-13.583679-.628448-.418763-5.483551-.322632-10.450623-.226502-15.417725Z" fill="#0d0d0d"/><path d="M573.282593,287.954224c0,4.792083,0,9.584137,0,15.010894-4.801331,0-9.081238,0-14.087647-.300994-1.085754-5.149201-1.445007-9.997376-1.804199-14.845582c4.567993-.325378,9.135986-.650726,14.306458-.733886.930114.451294,1.257751.660431,1.585388.869568Z" fill="#0e0e0e"/><path d="M557.060425,288.000763c.689514,4.665985,1.048767,9.51416,1.670898,14.703888-.659179-.49585-2.346985-1.310059-2.373047-2.174408-.124023-4.108276.204468-8.230194.702149-12.52948Z" fill="#b6b6b6"/><path d="M557.812927,268.178894c.309937,4.935028.213806,9.9021.172669,15.332092-.467285.166443-1.454834-.150268-1.442932-.42337.21643-4.962006.5531-9.918762,1.270263-14.908722Z" fill="#b6b6b6"/><path d="M572.157288,284.41452c.116821-.525757.361755-.829986.877014-1.253143-.069458.412231-.40918.943451-.877014,1.253143Z" fill="#b6b6b6"/><path d="M573.501343,287.81842c-.546387-.073333-.874024-.28247-1.338074-.755004.42804.030822.992432.325042,1.338074.755004Z" fill="#b6b6b6"/><path d="M216.247437,268.176056c4.775131,0,9.550247,0,15.119491,0c0,4.741272.156387,9.145447-.132355,13.520264-.057556.872192-1.773529,2.261383-2.79866,2.331451-3.794144.259369-7.619247.066254-11.928986-.481964-.417327-5.473358-.338409-10.42157-.25949-15.369751Z" fill="#0d0d0d"/><path d="M197.967834,286.799072c4.647263.148926,9.29451.297852,14.177704,1.182129-.221481,5.513458-.678894,10.291565-1.136291,15.069641-4.451798,0-8.90361,0-14.242554,0c0-5.033111,0-9.589264.258087-14.737488.48642-.899444.714737-1.206848.943054-1.514282Z" fill="#0d0d0d"/><path d="M231.412231,287.927795c-.004837.491486.012085.984314-.017959,1.474244-.266251,4.341522.998962,10.063263-1.28009,12.604736-1.969193,2.195923-7.969666.776825-12.896103.63974-1.031495-5.146423-1.354966-9.976776-1.678437-14.80716c4.519196-.332672,9.038391-.665344,14.187104-.760498.981521.441346,1.333511.645142,1.685485.848938Z" fill="#0e0e0e"/><path d="M211.988037,283.992554c-4.361236.053711-8.722443.107452-13.703705-.059815-.932861-.443481-1.245697-.665985-1.558517-.888489c0-4.777435,0-9.55487,0-14.987182c4.821533,0,9.085998,0,14.11354.270874.891602,5.40213,1.020142,10.533356,1.148682,15.664612Z" fill="#0d0d0d"/><path d="M212.399994,284.029327c-.540497-5.168029-.669037-10.299255-1.096603-15.747223c1.208068-.297058,2.715164-.277465,4.583145-.181945.281982,5.024078.203064,9.97229.161728,15.382538-1.053696.502532-2.145005.542968-3.64827.54663Z" fill="#b9b9b9"/><path d="M215.244324,287.838104c.618789,4.831635.94226,9.661988,1.508697,14.842621-1.645019.514313-3.533005.678375-5.582367.606262.29599-5.014221.753403-9.792328,1.343689-15.030883.900131-.446717,1.667389-.432984,2.729981-.418Z" fill="#b6b6b6"/><path d="M196.511353,283.182129c.527282.084625.840118.307129,1.307464.776245-.404281-.04837-.963089-.343384-1.307464-.776245Z" fill="#b9b9b9"/><path d="M197.847595,286.573914c-.108078.532592-.336395.839996-.828979,1.270446.060074-.416504.384399-.956085.828979-1.270446Z" fill="#b6b6b6"/><path d="M231.624359,287.77832c-.564102-.054321-.916092-.258117-1.432403-.726379.438629.015991,1.04158.296448,1.432403.726379Z" fill="#b6b6b6"/></svg>
